<?xml version="1.0" encoding="utf-8"?>
<!-- Generator: Adobe Illustrator 24.0.2, SVG Export Plug-In . SVG Version: 6.00 Build 0)  -->
<svg version="1.1" id="Capa_1" xmlns="http://www.w3.org/2000/svg" xmlns:xlink="http://www.w3.org/1999/xlink" x="0px" y="0px"
	 viewBox="0 0 665 436" style="enable-background:new 0 0 665 436;" xml:space="preserve">
<style type="text/css">
	.st0{fill:#FAFBFC;}
	.st1{fill:#FEFBFC;}
	.st2{fill:#E2167E;}
	.st3{fill:#2F408F;}
	.st4{fill:#E2167F;}
	.st5{fill:#FEFAFC;}
	.st6{fill:#FEFBFD;}
	.st7{fill:#E2157E;}
	.st8{fill:#FEF8FB;}
	.st9{fill:#FDF5F9;}
	.st10{fill:#DF0A74;}
	.st11{fill:#E54897;}
	.st12{fill:#E10977;}
</style>
<path class="st0" d="M108,325c0,0.7,0,1.3,0,2c1.2,0.1,2.3,0.2,3.6,0.4c4,0.5,7.7,1.5,11.6,2.8c1,0.3,1,0.3,2,0.6
	c2.3,0.7,4.5,1.5,6.8,2.2c0.9,0.3,1.8,0.6,2.8,0.9c6.1,2,12.1,4,18.2,6.1c0,0.7,0,1.3,0,2c0.6,0.1,1.2,0.2,1.9,0.4
	c4.2,0.8,8.4,1.7,12.5,2.7c23.4,5.5,48.3,4.8,71.4-1.5c3-0.8,6.1-1.2,9.2-1.6c0-0.7,0-1.3,0-2c1.2-0.4,1.2-0.4,2.4-0.8
	c1.1-0.3,2.1-0.7,3.2-1c1.5-0.5,1.5-0.5,3.1-1c3.3-1.1,3.3-1.1,6.5-2.6c5-2.2,10.3-3.4,15.6-4.8c1-0.3,2.1-0.5,3.2-0.8
	c7.7-2,7.7-2,11.1-2c0-0.7,0-1.3,0-2c2.8-0.5,5.6-1,8.4-1.4c0.8-0.1,1.6-0.3,2.4-0.4c23.9-4,47.4-2.4,71.2,1.8c0,0.7,0,1.3,0,2
	c0.6,0.1,1.1,0.1,1.7,0.2c9.7,1.5,18.9,4.7,28.3,7.8c1.2,0.4,1.2,0.4,2.3,0.8c4.2,1.4,8.5,2.8,12.7,4.2c0,0.7,0,1.3,0,2
	c0.6,0.1,1.1,0.2,1.7,0.3c0.8,0.1,1.7,0.3,2.6,0.5c1.5,0.3,1.5,0.3,3.1,0.5c3.6,0.7,3.6,0.7,7.2,1.7c23.4,6.4,51,5,74.2-1.5
	c3.4-0.8,6.7-1.2,10.2-1.6c0-0.7,0-1.3,0-2c20.9-7.8,20.9-7.8,31.6-11c0.7-0.2,1.4-0.4,2.1-0.6c3.3-0.9,5.8-1.4,9.3-1.4
	c0-0.7,0-1.3,0-2c2.4-0.5,4.7-1,7.1-1.4c0.7-0.1,1.3-0.3,2-0.4c21.1-4.3,44.1-3.7,64.9,1.8c0,0.7,0,1.3,0,2c0.6,0.1,1.2,0.1,1.8,0.2
	c9.2,1.4,17.6,4.6,26.2,7.8c0.1,2.8,0.1,5.6,0.2,8.4c0,1.2,0,1.2,0.1,2.4c0,2.1-0.1,4.1-0.3,6.2c-3,2-3,2-6,2c-0.3,1-0.7,2-1,3
	c-3.9,3.1-7,4.9-12,5c-2.2-0.6-4.3-1.3-6.5-2.1c-4.4-1.6-9-2.7-13.5-3.9c0-0.7,0-1.3,0-2c-1.3-0.1-2.5-0.2-3.8-0.4
	c-3.6-0.4-7-1-10.5-1.7c-10.7-2-20.4-0.7-31,1.4C576,354,576,354,572,354c0,0.7,0,1.3,0,2c-0.6,0.2-1.1,0.3-1.7,0.5
	c-8.5,2.5-16.8,5.4-25.1,8.4c-1.9,0.7-3.8,1.4-5.7,2c-1.1,0.4-2.3,0.8-3.4,1.2c-2.9,0.8-5.1,1.1-8.1,0.9c0,0.7,0,1.3,0,2
	c-37.9,10.4-81.3,12.6-119,0c0-0.7,0-1.3,0-2c-0.9-0.1-0.9-0.1-1.8-0.2c-6.9-1-13.1-3-19.5-5.4c-7.5-2.7-15-5.1-22.7-7.4
	c0-0.7,0-1.3,0-2c-0.7,0-1.4-0.1-2.1-0.1c-5.7-0.4-11.3-1.1-17-2c-11.8-1.6-24.1-0.9-35.7,1.7c-2.4,0.4-4.7,0.5-7.2,0.4
	c0,0.7,0,1.3,0,2c-0.7,0.2-1.3,0.3-2,0.5c-8,2.1-15.7,4.8-23.5,7.6c-6.1,2.2-12.1,3.8-18.5,4.9c0,0.7,0,1.3,0,2
	c-39.8,9.7-77.3,10.2-117,0c0-0.7,0-1.3,0-2c-0.6-0.1-1.2-0.2-1.8-0.3c-6.2-1.2-12-2.9-18-5.1c-1.7-0.6-3.5-1.2-5.2-1.9
	c-0.8-0.3-1.7-0.6-2.5-0.9c-5.1-1.8-10.2-3.3-15.4-4.8c0-0.7,0-1.3,0-2c-0.6,0-1.1-0.1-1.7-0.1c-5.1-0.5-10.1-1.1-15.2-1.9
	c-11.6-1.6-21.8-0.7-33.2,1.4C45,354,45,354,41,354c0,0.7,0,1.3,0,2c-3.3,1.1-6.6,2.2-9.9,3.2c-1.4,0.5-1.4,0.5-2.8,0.9
	c-5.8,1.8-9.7,2.1-15.4-0.1c-2-1.1-3.4-2.3-4.9-4c0-0.7,0-1.3,0-2c-1.1-0.2-1.1-0.2-2.3-0.4C3,353,3,353,0,351
	c-0.2-2.6-0.3-5-0.2-7.6c0-0.7,0-1.4,0-2.1c0-1.7,0.1-3.5,0.1-5.2c4.9-2.7,9.6-4.2,14.9-5.6c0.8-0.2,1.5-0.4,2.3-0.7
	c4.6-1.3,9-2.2,13.7-2.7c0-0.7,0-1.3,0-2c2.6-0.5,5.3-1,7.9-1.4c0.7-0.1,1.5-0.3,2.2-0.4C63.5,319.1,85.8,320.4,108,325z"/>
<path class="st1" d="M479,195c1.7,1.9,1.7,1.9,3.3,4c0.5,0.7,1,1.4,1.6,2.1c1.2,1.9,1.2,1.9,1.2,3.9c0.7,0,1.3,0,2,0
	c0,4.9,0,9.9,0,15c-0.7,0-1.3,0-2,0c-0.2,1.1-0.5,2.3-0.8,3.5c-1.2,4.6-3.1,8.6-5.3,12.8c-0.5,1-0.5,1-1.1,2.1c-0.7,1.3-1.4,2.6-2,4
	c-0.7,1.3-1.4,2.7-2,4.1c-0.9,1.6-0.9,1.6-2.7,3.4c-2.2,2.2-3.5,4.5-5,7.3c-1.7,2.9-3.8,5.5-5.9,8.1c-1.5,1.9-1.5,1.9-2.3,4.8
	c-1.1,1.1-2.3,2.2-3.4,3.3c-2,2.1-3.8,4.4-5.6,6.7c-2.8,3.6-5.7,6.9-9,10c-0.8,0.8-0.8,0.8-1.6,1.6c-1.4,1.5-2.9,2.9-4.4,4.4
	c-0.7,0-1.3,0-2,0c-0.2,0.6-0.5,1.2-0.7,1.8c-2.7,4.6-8.7,6.4-13.6,7.8c-6.4,1-11.9-0.4-17.5-3.7c-3.2-2.4-5-4.8-5.9-8.7
	c-0.7-5.1-1-10.1-1.3-15.2c-0.2,0.5-0.5,1-0.8,1.5c-5.3,8.6-15,12.6-24.3,15.5c-15.7,3.3-34.2,1.3-48-7.2c-3.1-2.5-5-5.3-7-8.7
	c-1-1-2-2-3-3c-0.3-0.7-0.7-1.3-1-2c-0.2,0.6-0.5,1.2-0.7,1.8c-1,2.6-2.1,5.3-3.1,7.9c-0.4,0.9-0.7,1.8-1.1,2.8
	c-3.2,8-5.2,12.7-13.1,16.5c-4.2,1.6-8.8,1.8-13.1,0.3c-5.8-2.7-9.7-5.9-12.8-11.7c-2.4-7.3-0.8-12.7,1.8-19.6c0.7,0,1.3,0,2,0
	c0.7-3,1.3-5.9,2-9c-1.1,0.6-2.1,1.1-3.2,1.7c-0.6,0.3-1.2,0.6-1.8,0.9c-2.2,1.4-2.2,1.4-4.4,3.7c-3.6,3.6-7.6,6.4-11.7,9.4
	c-3,2.2-3,2.2-5.5,4.9c-3.9,3.8-8.3,5.2-13.8,5.4c-5.2-0.4-8.7-1.6-12.6-5.1c-4.3-5.2-6.3-10.2-6-17c1-3.7,2.6-7.2,4.3-10.7
	c0.4-0.9,0.8-1.8,1.2-2.8c2.1-4.6,4.2-9.1,6.5-13.6c0.7,0,1.3,0,2,0c0.2-0.8,0.5-1.6,0.8-2.5c1.5-4.1,3.3-7.8,5.3-11.7
	c0.4-0.7,0.7-1.4,1.1-2.2c1.5-3,3-5.8,4.9-8.7c0.7,0,1.3,0,2,0c1.2-2.3,2.2-4.5,3-7c4.6-3.6,9.7-4.7,15.4-4.4
	c4.7,0.8,8.8,2.6,12.6,5.4c1.6,3.3,1.6,3.3,2,6c0.5-0.3,1-0.6,1.6-0.9c6.9-3.7,6.9-3.7,11.4-3.1c0-0.7,0-1.3,0-2
	c3.1-0.9,5.8-1.1,9-1.1c1.3,0,1.3,0,2.6,0c2.3,0.1,4.2,0.5,6.4,1.1c0,0.7,0,1.3,0,2c0.5,0.1,1.1,0.2,1.6,0.3c4,1.3,7.3,3.1,9.6,6.7
	c2.9,5.6,3.9,10.5,4.3,16.8c0.1,1.2,0.2,2.3,0.3,3.5c0.1,0.9,0.1,1.8,0.2,2.7c0.6-0.9,1.1-1.8,1.7-2.7c2-3.2,4.6-5.7,7.3-8.3
	c1.3-1.4,2.6-2.9,3.9-4.4c4.4-4.9,8.8-9.3,14.2-13.2c2.1-1.5,2.1-1.5,4.5-4.2c4.9-4.5,10.7-5.9,17.2-5.6c5.2,0.8,9,3,12.5,6.9
	c0.6,0.8,1.2,1.6,1.8,2.5c0.6,0.6,1.3,1.2,1.9,1.8c2.5,2.6,3.8,5.2,5.3,8.5c0.8,1.6,0.8,1.6,1.6,3.3c0.4,0.8,0.8,1.6,1.2,2.5
	c-0.2-1.6-0.2-1.6-0.3-3.3c-0.1-1.4-0.2-2.9-0.4-4.3c-0.1-0.7-0.1-1.4-0.2-2.1c-0.5-6.3,1.1-10.1,4.2-15.6c4.3-4.3,8.9-5,14.8-5.2
	c5.1,0.1,8.1,0.9,11.9,4.4c4,4.4,4,4.4,4,7c0.7,0,1.3,0,2,0c2.3,8.3,4.5,16.5,6,25c0.8-1.1,1.6-2.2,2.4-3.3c0.7-0.9,0.7-0.9,1.4-1.9
	c1.4-1.9,1.4-1.9,2.2-4.8c0.5-0.5,0.9-0.9,1.4-1.4c3.9-4,5.6-10,6.6-15.3c1-4.9,2.6-7.9,6.2-11.4C462.2,191.2,471.8,190.4,479,195z
	 M394,230c1,3,1,3,1,3L394,230z M360,253c-0.7,1.3-1.3,2.6-2,4c1,0,2,0,3,0C360.7,255.7,360.3,254.4,360,253z"/>
<path class="st2" d="M104,108c0,0.7,0,1.3,0,2c0.6,0.1,1.1,0.1,1.7,0.2c10.3,1.6,19.1,6.3,26.3,13.8c1.8,1.5,3.5,3,5.3,4.4
	c6.2,5.6,10.1,12,13.7,19.6c0,0.7,0,1.3,0,2c0.7,0,1.3,0,2,0c5.6,13.6,7.6,26.8,7.5,41.4c0,0.7,0,1.4,0,2.1
	c0,15.3-2.4,30.1-7.5,44.5c-0.7,0-1.3,0-2,0c-0.1,1.4-0.1,1.4-0.2,2.8c-1.5,10.4-7.3,20.9-14.8,28.3c-1.2,1.3-2.3,2.6-3.4,3.9
	c-0.6,0.7-1.2,1.4-1.9,2.1c-1.4,1.6-2.7,3.3-4,5c-0.9,1-0.9,1-1.8,2c-1,0-2,0-3,0c-0.2,0.6-0.5,1.1-0.7,1.7
	c-1.6,2.8-3.6,4.4-6.1,6.4c-1.3,1-1.3,1-2.6,2.1c-2.6,1.8-2.6,1.8-5.4,2.9c-0.7,0.3-1.5,0.6-2.2,0.9c-0.3,1-0.7,2-1,3
	c-6.7,5.9-18,12-27,12c0,0.7,0,1.3,0,2c-10.2,4.4-20.7,5.4-31.2,1.9C44,314,44,314,43,311c-1-0.3-2-0.7-3-1c-2.1-2.9-3-4.4-3-8
	c-0.7,0-1.3,0-2,0c0-3.6,0-7.3,0-11c0.7,0,1.3,0,2,0c0.1-0.8,0.1-0.8,0.3-1.6c1.2-3.9,2.8-7.3,6.5-9.4c4.6-1.8,9.4-2.9,14.2-4
	c-0.6-1.2-0.6-1.2-1.3-2.4c-0.6-1.1-1.1-2.1-1.7-3.2c-0.8-1.5-0.8-1.5-1.7-3.1c-3.1-7.7-0.3-14.8,1.9-22.4c0.3-1.1,0.6-2.2,1-3.4
	c2.3-8,4.8-15.8,7.9-23.6c0.7,0,1.3,0,2,0c0.2-0.6,0.3-1.3,0.5-1.9c2.1-8,4.8-15.6,7.7-23.3c0.5-1.3,0.9-2.5,1.4-3.8
	c1.1-3,2.3-6,3.4-9.1c0.7,0,1.3,0,2,0c0.1-0.7,0.3-1.5,0.4-2.2c0.6-2.7,1.4-5,2.4-7.5c0.3-0.9,0.7-1.7,1.1-2.6
	c0.4-0.9,0.7-1.8,1.1-2.7c0.4-0.9,0.7-1.8,1.1-2.7c0.7-1.7,1.3-3.3,2-5c0.3-0.8,0.6-1.5,0.9-2.3c0.4-0.9,0.7-1.7,1.1-2.6
	c1.1-2.4,1.1-2.4,0.9-5.4c-0.7-0.2-1.3-0.3-2-0.5c-9.8-2.7-9.8-2.7-13-6.5c-3.6-6.7-4.6-12.2-2.8-19.6c1.6-4.7,3.7-6.7,8-9.2
	C85,110,85,110,87,110c0-0.7,0-1.3,0-2C92.8,106.6,98.2,106.6,104,108z M120,182c-1.7,4.3-3.3,8.5-5,12.8c-0.5,1.2-1,2.4-1.4,3.7
	c-0.5,1.2-0.9,2.3-1.4,3.5c-0.4,1.1-0.8,2.1-1.3,3.3c-1.1,2.7-1.1,2.7-0.9,5.7c-0.7,0-1.3,0-2,0c-1.6,4.1-3.2,8.3-4.8,12.4
	c-0.5,1.2-0.9,2.3-1.4,3.5c-4.7,10.7-4.7,10.7-6.8,22c-0.7,0-1.3,0-2,0c-1.9,5.5-1.9,5.5-1,11c4.9-2.9,8-6.1,11.4-10.6
	c0.7-0.9,0.7-0.9,1.4-1.8c2.5-3,2.5-3,3.3-6.6c0.7,0,1.3,0,2,0c10.3-19,11.7-37.6,11-59C120.7,182,120.3,182,120,182z"/>
<path class="st3" d="M116,336c2.4,0.7,4.8,1.5,7.2,2.2c1.9,0.6,3.9,1.2,5.8,1.8c0,0.7,0,1.3,0,2c0.9,0.1,0.9,0.1,1.8,0.3
	c5.5,1,10.3,2.5,15.5,4.6c8,3.2,16.3,5.4,24.7,7.1c0,0.7,0,1.3,0,2c2.9,0,2.9,0,5.8-0.1c2.2,0.1,2.2,0.1,4.4,0.6
	c3.3,0.6,6.5,0.6,9.9,0.6c0.7,0,1.3,0,2,0c1.4,0,2.8,0,4.2,0c2.1,0,4.3,0,6.4,0c1.4,0,2.7,0,4.1,0c1.2,0,2.5,0,3.7,0
	c3.2-0.1,6.3-0.5,9.4-1.1c2.7-0.1,5.3,0,8,0c0-0.7,0-1.3,0-2c1-0.1,1-0.1,2.1-0.3c5.8-0.9,10.9-2.3,16.3-4.6
	c7.6-3.1,15.7-5.2,23.7-7.1c0-0.7,0-1.3,0-2c1-0.3,1-0.3,2-0.5c3-0.8,6-1.6,8.9-2.4c1-0.3,2.1-0.6,3.2-0.8c1-0.3,2-0.5,3-0.8
	c0.9-0.2,1.8-0.5,2.8-0.7c2.1-0.5,2.1-0.5,3.1-1.7c29.2-5.5,63.8-6.4,92,4c1.9,0.6,3.9,1.2,5.8,1.8c0.8,0.2,1.6,0.5,2.5,0.7
	c0.6,0.2,1.1,0.3,1.7,0.5c0,0.7,0,1.3,0,2c1.2,0.3,2.3,0.6,3.5,0.8c4.2,1,8.3,2.3,12.4,3.6c0.7,0.2,1.4,0.4,2.1,0.7
	c3.7,1.2,7.4,2.4,11,3.6c3.6,1.2,7.1,1.8,10.9,2.3c0.3,1,0.7,2,1,3c1,0,1,0,2.1,0c0.9,0,1.8,0,2.7,0c1.3,0,1.3,0,2.7,0
	c2.5,0.1,2.5,0.1,5.5,1.1c2.8,0.1,5.5,0.1,8.3,0.1c0.8,0,1.6,0,2.5,0c1.7,0,3.4,0,5.1,0c2.6,0,5.2,0,7.9,0c1.7,0,3.3,0,5,0
	c0.8,0,1.6,0,2.4,0c3.2,0,5.8-0.1,8.9-1.1c1.7-0.1,3.5-0.1,5.2-0.1c0.9,0,1.8,0,2.7,0c0.7,0,1.4,0,2.1,0c0-0.7,0-1.3,0-2
	c0.6-0.1,1.1-0.3,1.7-0.4c9-2.4,17.9-5.1,26.8-7.8c4.2-1.3,8.3-2.5,12.5-3.8c0-0.7,0-1.3,0-2c6.9-2.2,13.9-4.3,20.9-6.1
	c1.2-0.3,2.4-0.6,3.7-0.9c29-6.5,62.9-4.8,90.4,7.1c0.3,0.7,0.7,1.3,1,2c2,1.1,2,1.1,4,2c-2,1.5-4,3.1-6.1,4.6
	c-0.6,0.4-1.1,0.9-1.7,1.3c-3.2,2.3-4.9,3.1-8.8,3c-3-0.8-5.9-1.6-8.8-2.7c-27.7-9.3-53.9-7.9-81.3,2c-2.4,0.8-4.8,1.3-7.4,1.8
	c0,0.7,0,1.3,0,2c-19.2,6.8-39.5,13.3-60,13c0,0.7,0,1.3,0,2c-10.6,0-21.1,0-32,0c0-0.7,0-1.3,0-2c-0.7,0-1.5,0-2.2,0.1
	c-7.3,0.1-14.2-0.5-21.4-1.7c-1-0.2-2.1-0.4-3.1-0.5c-12.6-2.3-26.7-5-38.2-10.8c0-0.7,0-1.3,0-2c-0.8-0.2-0.8-0.2-1.7-0.3
	c-3.9-0.8-7.7-1.8-11.5-3.1c-6.1-2.1-12.5-3.3-18.8-4.6c-0.7-0.2-1.4-0.3-2.2-0.5c-23.8-5.4-50.8-1.5-73.2,7.6
	C280,354,280,354,276,354c0,0.7,0,1.3,0,2c-7.8,2.7-15.8,5-23.8,7.3c-1.5,0.5-3,0.9-4.5,1.4c-6.9,2.3-13.6,2.9-20.8,3.4
	c-1.7,0.1-1.7,0.1-3.5,0.2c-2.8,0.2-5.6,0.4-8.4,0.6c0,0.7,0,1.3,0,2c-8.6,0-17.2,0-26,0c0-0.7,0-1.3,0-2c-0.7,0.1-1.4,0.1-2.2,0.2
	c-12.6,0.5-24.6-2.5-36.8-5.2c-0.9-0.2-1.7-0.4-2.6-0.6c-0.8-0.2-1.6-0.3-2.4-0.5c-1-0.2-1-0.2-2.1-0.4c-3.4-0.9-6.7-2.2-9.9-3.5
	c-1.5-0.6-3-1.1-4.5-1.7c-1.2-0.4-2.3-0.9-3.5-1.3c0-0.7,0-1.3,0-2c-1-0.1-2-0.2-3.1-0.4c-3.8-0.6-6.9-1.6-10.5-3
	c-22.3-7.7-47.5-10-70.4-3.7c-1.3,0.3-2.6,0.7-3.9,1c-6.9,1.8-6.9,1.8-13.1,5c-3.5,0.6-5.9,0.6-9.1-1.2c-1.4-1.1-2.7-2.1-4.1-3.2
	c-2.2-1.8-4.5-3.1-6.9-4.5c0-0.3,0-0.7,0-1c0.8-0.1,1.6-0.2,2.4-0.4c0.8-0.2,1.7-0.4,2.6-0.6c0.3-0.7,0.7-1.3,1-2
	C41.4,326.2,83.7,325.5,116,336z"/>
<path class="st4" d="M540,195c0,0.7,0,1.3,0,2c1.2,0,1.2,0,2.5,0.1c5.7,1.5,9.7,5.2,12.9,10.1c2.6,5.1,2.6,5.1,2.6,7.8
	c0.7,0,1.3,0,2,0c2.2,5.3,2.3,10,2.3,15.6c0,1.3,0,1.3,0,2.5c0,4.4-0.1,8-2.3,11.9c-1.6,1.4-3.3,2.7-5,4c-1.8,5.3-2.2,12-0.1,17.3
	c1,1.6,2,3.2,3.1,4.7c0,0.7,0,1.3,0,2c0.7,0,1.3,0,2,0c1.8,6.1,2.3,10,0,16c-0.7,0-1.3,0-2,0c-0.2,0.7-0.5,1.4-0.7,2.2
	c-1.6,3.4-3.5,5.4-6.3,7.8c-3,1-5.2,1.2-8.4,1.2c-1.4,0-1.4,0-2.8,0c-4.6-0.4-7.7-1.8-10.8-5.2c-2.4-2.7-2.4-2.7-5-5
	c-2.9,0-4.5,0.4-7.2,1.4c-10.1,3.4-18.4,2.8-28.2-1.7c-5.2-2.8-7.5-5.9-9.7-11.4c-1.1-4.1-1.3-7.7-1.3-11.9c0-0.8,0-1.6,0-2.4
	c0.1-7.2,1.7-13.4,4.4-20c0.3-0.8,0.6-1.6,0.9-2.4c0.7-1.6,1.4-3.1,2.1-4.6c0.7,0,1.3,0,2,0c0.3-0.9,0.5-1.7,0.8-2.6
	c3.2-8.7,9-16.6,15.2-23.4c0.6-0.7,1.1-1.4,1.7-2.1c3.8-4.6,7-7.3,12.3-9.9c1.1-0.6,1.1-0.6,2.3-1.3c1.8-0.8,1.8-0.8,4.8-0.8
	c0-0.7,0-1.3,0-2C529,193.3,535,193.3,540,195z"/>
<path class="st5" d="M104,108c0,0.7,0,1.3,0,2c0.6,0.1,1.1,0.1,1.7,0.2c10.3,1.6,19.1,6.3,26.3,13.8c1.8,1.5,3.5,3,5.3,4.4
	c6.2,5.6,10.1,12,13.7,19.6c0,0.7,0,1.3,0,2c0.7,0,1.3,0,2,0c5.6,13.6,7.6,26.8,7.5,41.4c0,0.7,0,1.4,0,2.1
	c0,15.3-2.4,30.1-7.5,44.5c-0.7,0-1.3,0-2,0c-0.1,1.4-0.1,1.4-0.2,2.8c-1.5,10.4-7.3,20.9-14.8,28.3c-1.2,1.3-2.3,2.6-3.4,3.9
	c-0.6,0.7-1.2,1.4-1.9,2.1c-1.4,1.6-2.7,3.3-4,5c-0.9,1-0.9,1-1.8,2c-1,0-2,0-3,0c-0.2,0.6-0.5,1.1-0.7,1.7
	c-1.6,2.8-3.6,4.4-6.1,6.4c-1.3,1-1.3,1-2.6,2.1c-2.6,1.8-2.6,1.8-5.4,2.9c-0.7,0.3-1.5,0.6-2.2,0.9c-0.3,1-0.7,2-1,3
	c-6.7,5.9-18,12-27,12c0,0.7,0,1.3,0,2c-10.2,4.4-20.7,5.4-31.2,1.9C44,314,44,314,43,311c-1-0.3-2-0.7-3-1c-2.1-2.9-3-4.4-3-8
	c-0.7,0-1.3,0-2,0c0-3.6,0-7.3,0-11c0.7,0,1.3,0,2,0c0.1-0.8,0.1-0.8,0.3-1.6c1.2-3.9,2.8-7.3,6.5-9.4c4.6-1.8,9.4-2.9,14.2-4
	c-0.6-1.2-0.6-1.2-1.3-2.4c-0.6-1.1-1.1-2.1-1.7-3.2c-0.8-1.5-0.8-1.5-1.7-3.1c-3.1-7.7-0.3-14.8,1.9-22.4c0.3-1.1,0.6-2.2,1-3.4
	c2.3-8,4.8-15.8,7.9-23.6c0.7,0,1.3,0,2,0c0.2-0.6,0.3-1.3,0.5-1.9c2.1-8,4.8-15.6,7.7-23.3c0.5-1.3,0.9-2.5,1.4-3.8
	c1.1-3,2.3-6,3.4-9.1c0.7,0,1.3,0,2,0c0.1-0.7,0.3-1.5,0.4-2.2c0.6-2.7,1.4-5,2.4-7.5c0.3-0.9,0.7-1.7,1.1-2.6
	c0.4-0.9,0.7-1.8,1.1-2.7c0.4-0.9,0.7-1.8,1.1-2.7c0.7-1.7,1.3-3.3,2-5c0.3-0.8,0.6-1.5,0.9-2.3c0.4-0.9,0.7-1.7,1.1-2.6
	c1.1-2.4,1.1-2.4,0.9-5.4c-0.7-0.2-1.3-0.3-2-0.5c-9.8-2.7-9.8-2.7-13-6.5c-3.6-6.7-4.6-12.2-2.8-19.6c1.6-4.7,3.7-6.7,8-9.2
	C85,110,85,110,87,110c0-0.7,0-1.3,0-2C92.8,106.6,98.2,106.6,104,108z M83,121c-1.3,3.7-1.3,7-0.3,10.8C84,134,85,135.5,87,137
	c1,0,2,0,3,0c0,0.7,0,1.3,0,2c5.9,1,5.9,1,12,2c1.2,4.7,0.5,6-1.3,10.3c-0.5,1.1-0.9,2.3-1.4,3.5c-1,2.5-2.1,4.9-3.2,7.3
	c-1.4,2.8-1.4,2.8-1.2,5.9c-0.7,0-1.3,0-2,0c-0.4,1-0.7,1.9-1.1,2.9c-0.2,0.6-0.5,1.3-0.7,1.9c-0.5,1.4-1.1,2.9-1.6,4.3
	c-1.4,3.8-2.9,7.6-4.3,11.4c-0.3,0.7-0.6,1.4-0.8,2.2c-0.5,1.4-1.1,2.8-1.6,4.2c-1.4,3.4-1.4,3.4-1.8,7.1c-0.7,0-1.3,0-2,0
	c-0.3,0.9-0.6,1.8-1,2.8c-1.2,3.4-2.4,6.8-3.6,10.2c-0.5,1.5-1,2.9-1.6,4.4c-0.7,2.1-1.5,4.2-2.2,6.4c-0.2,0.7-0.5,1.3-0.7,2
	c-1,2.7-2,5.4-3.1,8.1c-1,2.5-1,4.5-0.8,7.2c-0.7,0-1.3,0-2,0c-3.7,10.3-3.7,10.3-4,21c2.4,4.7,2.4,4.7,7,7c5.9,0.4,5.9,0.4,11-2
	c0.8-2,0.8-2,1-4c0.7,0,1.3,0,2,0c0.3-0.9,0.6-1.9,0.9-2.9c2.6-8.4,5.3-16.8,8.1-25.1c1.2-3.7,2.3-7.2,3-11c0.7,0,1.3,0,2,0
	c3.1-7.8,6-15.7,8.8-23.6c0.3-0.9,0.6-1.7,0.9-2.6c0.3-0.8,0.6-1.6,0.9-2.5c0.4-1.1,0.4-1.1,0.8-2.2c0.7-2,1.2-4,1.7-6.1
	c0.7,0,1.3,0,2,0c2-4.4,3.7-8.9,5.2-13.5c1.2-3.7,2.7-7.4,4.1-11.1c0.9-2.4,0.9-2.4,0.8-5.4c1.9,0.2,1.9,0.2,4,1
	c1,1.8,1,1.8,1.6,4.1c0.2,0.7,0.4,1.5,0.7,2.2c0.2,0.9,0.5,1.8,0.7,2.7c0.4,1.1,0.7,2.2,1.1,3.4c1.6,6.3,1.2,12.9,1.2,19.4
	c0,1.9,0,1.9,0,3.9c0,10.6-0.9,20.5-4.7,30.5c-0.7,2-0.7,2-0.6,4.8c-0.7,0-1.3,0-2,0c-0.4,1-0.4,1-0.8,2c-2.8,6.3-5.9,12-9.8,17.8
	c-1.5,2.1-1.5,2.1-1.4,4.2c-2,1-2,1-4,2c0,0.7,0,1.3,0,2c-0.7,0-1.3,0-2,0c-1.7,1.6-3.4,3.3-5,5c-0.8,0.6-1.5,1.1-2.3,1.7
	c-0.6,0.4-1.1,0.9-1.7,1.3c0,0.7,0,1.3,0,2c-0.7,0.3-1.4,0.5-2.2,0.8c-2.8,1.2-5.2,2.5-7.8,4c-6.1,3.4-12.4,5.8-19,8.2
	c0,0.7,0,1.3,0,2c-1.1,0.1-2.2,0.2-3.4,0.4c-8.9,1-8.9,1-17.3,4.1c-2.3,4.3-2.2,8.8-1.4,13.6c2.5,3.4,4,4.7,8,6
	c13.2,0.9,27.6-3.4,39-10c0.3-0.7,0.7-1.3,1-2c1.4-0.8,2.8-1.6,4.2-2.3c3-1.6,5.6-3.2,8.1-5.4c2.7-2.3,2.7-2.3,4.8-3.3
	c2.2-1.1,3.6-2.6,5.3-4.4c3-2.9,6.2-5.6,9.3-8.3c2.3-2.3,3.7-4.4,5.3-7.3c1.8-2.6,3.6-5.1,5.5-7.6c1.4-2.2,2.1-3.8,2.5-6.4
	c0.7,0,1.3,0,2,0c5.3-11,8.2-21.6,10.4-33.6c0.6-3.4,0.6-3.4,1.6-6.4c0.3-5.3,0.3-10.7,0.4-16c0-1.8,0-3.5,0.1-5.3
	c0.4-16.9-2.1-35.2-13.9-48.5c-1.3-1.1-1.3-1.1-2.6-2.3c-1.8-2-3.6-4.1-5.4-6.1c-2.5-2.9-4.7-5.1-8.1-6.9c-2-1-3.4-1.8-4.9-3.5
	c-2.3-2.1-4.6-2.7-7.5-3.6c-1-0.3-2.1-0.7-3.1-1C97.4,115.4,89.3,113.5,83,121z M120,182c-1.7,4.3-3.3,8.5-5,12.8
	c-0.5,1.2-1,2.4-1.4,3.7c-0.5,1.2-0.9,2.3-1.4,3.5c-0.4,1.1-0.8,2.1-1.3,3.3c-1.1,2.7-1.1,2.7-0.9,5.7c-0.7,0-1.3,0-2,0
	c-1.6,4.1-3.2,8.3-4.8,12.4c-0.5,1.2-0.9,2.3-1.4,3.5c-4.7,10.7-4.7,10.7-6.8,22c-0.7,0-1.3,0-2,0c-1.9,5.5-1.9,5.5-1,11
	c4.9-2.9,8-6.1,11.4-10.6c0.7-0.9,0.7-0.9,1.4-1.8c2.5-3,2.5-3,3.3-6.6c0.7,0,1.3,0,2,0c10.3-19,11.7-37.6,11-59
	C120.7,182,120.3,182,120,182z"/>
<path class="st2" d="M628,194c6.6,5.4,12.1,13.4,13,22c0.8,9.9-0.1,17.1-6.3,24.9c-4.5,3.4-8.7,4.3-14.3,3.9
	c-5.8-0.8-9.3-3.8-13.4-7.9c-1.3,3-2.6,5.9-4,9c-0.7,0-1.3,0-2,0c-1,4.6-2,9.2-3,14c2.6-0.7,2.6-0.7,5.3-1.4c1-0.3,1.9-0.5,3-0.8
	c3.3-1,5.8-1.9,8.3-4.3c4.3-4.3,11.6-6.4,17.5-6.5c5.2,1.6,8.2,3.3,11,8c2.3,5.3,2.3,9.4,0.2,14.8c-1.7,3.2-4,5.8-6.5,8.4
	c-1.8,1.8-1.8,1.8-3.2,3.9c-2.2,2.9-5.3,4.2-8.5,5.9c-0.8,0.4-1.5,0.8-2.3,1.3c-8.1,4.3-16.4,7.4-25.7,6.7c0,0.7,0,1.3,0,2
	c-1.7,0-3.3,0-5,0c0-0.7,0-1.3,0-2c-0.9,0.1-1.9,0.2-2.9,0.3c-7.9,0-15.9-4.4-21.7-9.6c-1.6-1.7-2.5-3.3-3.5-5.4c-0.5-1-0.5-1-1-1.9
	c-6-14.4-3.7-30.2,2-44.3c2.1-4.8,4.5-9.4,7-14c0.7,0,1.3,0,2,0c0.4-1.1,0.4-1.1,0.8-2.2c1.4-3.1,3.1-5.2,5.3-7.8
	c0.4-0.8,0.8-1.6,1.3-2.4c3.7-5.5,8.6-9.4,14.8-11.6c0.3-1,0.7-2,1-3c1.7-0.9,1.7-0.9,3.8-1.6c0.7-0.2,1.4-0.5,2.1-0.7
	C611.9,188.9,619.8,189,628,194z"/>
<path class="st2" d="M261,213c2.8,2.2,4.4,3.8,6,7c0.1,2.7,0,5.3,0,8c3-0.8,3-0.8,6-2c0.3-1,0.7-2,1-3c2.3-1.4,2.3-1.4,5.3-2.6
	c1-0.4,1.9-0.9,2.9-1.3c6.6-2.5,13.8-3.1,20.7-1.4c3.7,2.3,5.7,5.2,7.1,9.3c1.7,19.1-4.6,35.7-12,53c-0.7,0-1.3,0-2,0
	c-0.1,0.9-0.2,1.7-0.3,2.6c-1,4.7-2.2,8.1-5.9,11.3c-3.6,1.5-5.9,1.6-9.8,1.1c-5.5-3.1-5.5-3.1-7-6c-0.7-6.8,0.6-11,3.6-17.1
	c2.2-4.5,3.8-9.2,5.4-13.9c0.7,0,1.3,0,2,0c0.5-1.9,1-3.9,1.5-5.8c0.3-1.1,0.6-2.2,0.8-3.3c0.8-2.9,0.8-2.9,0.7-5.9
	c-5.3,2.5-9.8,5.2-14.3,8.8C271,253,271,253,269,253c0,0.7,0,1.3,0,2c-1.7,1-3.3,2-5,3c-2.3,1.8-4.6,3.6-6.8,5.4
	c-2,1.5-4,2.5-6.2,3.6c-0.7,0.7-1.5,1.5-2.3,2.3c-5,5-10.9,10.4-18.2,11.1c-3.8-0.3-5.6-0.9-8.6-3.3c-2.4-3.2-2.4-6.1-2-10
	c1.2-3.1,2.5-6,4-9c0.7,0,1.3,0,2,0c0.2-0.5,0.3-1.1,0.5-1.7c1.8-5.8,4.3-11.1,7.2-16.4c0.4-0.8,0.8-1.5,1.3-2.3
	c1-1.9,2-3.7,3.1-5.6c0.7,0,1.3,0,2,0c0.2-0.6,0.3-1.1,0.5-1.7C243.9,219.2,248.1,210.9,261,213z"/>
<path class="st2" d="M371,212c5.5,2.6,8.4,6.7,11,12c0.8,3,0.8,3,1,5c0.7,0,1.3,0,2,0c6.1,12.7,8.7,27.4,4,41c-1.5,3.1-3.4,4.9-6,7
	c-0.8,0.7-0.8,0.7-1.6,1.4c-4.1,3.6-4.1,3.6-6.4,3.6c0,0.7,0,1.3,0,2c-12.8,5.3-27.6,5.7-41,2c-1.4-0.6-2.7-1.3-4-2c0-0.7,0-1.3,0-2
	c-1.3-0.3-1.3-0.3-2.6-0.6c-4.4-1.9-6.7-4.6-9.4-8.4c-2.5-7.4-0.2-13.3,3-20c2.5-4.3,5.5-7.5,9-11c0.6-0.9,1.2-1.9,1.8-2.9
	c2.2-3.2,4.5-5.5,7.5-8c3.4-3,6.4-5.9,9.3-9.4C354.3,215,361.9,210,371,212z M360,253c-0.7,1.3-1.3,2.6-2,4c1,0,2,0,3,0
	C360.7,255.7,360.3,254.4,360,253z"/>
<path class="st2" d="M468.9,200.6c3.1,0.1,4.2,0.4,7.1,2.1c3.7,6.1,2.9,12.8,1.2,19.6c-0.9,2.7-1.8,5.2-3.2,7.7
	c-1.5,0.5-1.5,0.5-3,1c-0.6,1.9-0.6,1.9-1,4c-2.6,5.8-5.8,10.7-9.5,15.8c-1.6,2.2-1.6,2.2-2.5,5.2c-1.6,1.7-3.3,3.4-5,5
	c-2.8,3.2-4.9,6.4-6.8,10.2c-1.7,2.6-4,4.6-6.2,6.8c-1.3,1.5-2.6,2.9-3.9,4.4c-4.7,5.4-9.5,10.5-16.1,13.6c-1,0-2,0-3,0
	c0,0.7,0,1.3,0,2c-2.3,0-4.6,0-7,0c0-0.7,0-1.3,0-2c-0.8-0.1-1.6-0.2-2.4-0.3c-2.6-0.8-2.6-0.8-3.8-2.4c-1.1-2.9-1.1-5.2-1-8.3
	c0-1.2,0-2.4,0-3.7c0-1.3,0-2.6,0.1-4c0-1.4,0-2.7,0-4.1c0-5,0.1-10.1,0.1-15.1c0-4.3,0.1-8.5,0.1-12.8c0-2,0-4,0.1-5.9
	c0-6.4-0.2-12.2-1.7-18.4c-1-4.4-1-7.8,0.8-11.9c1.7-2.2,1.7-2.2,4.7-4.2c7-0.7,7-0.7,10.3,1.5c7.9,11.2,8.1,23.4,8.4,36.6
	c0,1.4,0.1,2.9,0.1,4.3c0.1,3.5,0.2,7,0.3,10.5c4.6-4.5,8.2-9.3,11.9-14.5c2.1-2.5,2.1-2.5,5.1-3.5c0.4-1.3,0.7-2.7,1-4
	c0.9-1.4,1.8-2.7,2.8-4c4.4-6.4,8.2-13.6,8.8-21.4c0.6-4.5,2-5.9,5.5-8.6C463.6,200.8,466.1,200.9,468.9,200.6z"/>
<path class="st1" d="M214.3,60c4.2,3.1,7.3,7.3,9.7,12c0.8,7,0.6,12.6-3.6,18.4c-1.7,2-3.3,3.9-5.4,5.6c-0.7,0-1.3,0-2,0
	c-0.7,1.3-1.3,2.6-2,4c-0.7,0-1.3,0-2,0c-0.4,1.1-0.4,1.1-0.9,2.2c-1.1,2.7-2.3,5.3-3.5,7.9c-0.4,0.9-0.9,1.9-1.3,2.8
	c-0.5,1-0.9,1.9-1.4,2.9c-0.5,1-0.9,2-1.4,3c-1.2,2.4-2.3,4.8-3.5,7.2c-0.7,0-1.3,0-2,0c-0.3,0.7-0.5,1.4-0.8,2.2
	c-3.4,8-8.3,14-16.2,17.8c-0.8,0.4-1.6,0.9-2.4,1.3c-6.6,1.8-12.5,1.1-18.6-2.3c-4-4.1-4-4.1-4-8c-0.7,0-1.3,0-2,0
	c-1-2.9-1.1-4.9-1.1-7.9c0-0.9,0-1.7,0-2.6c0.3-5.7,2-7.5,6.1-11.5c4.4-4.6,7.3-9.2,10-15c0.7,0,1.3,0,2,0c0.3-0.7,0.5-1.3,0.8-2
	c4.6-11.4,9.2-21.3,18.2-30c0.8-0.9,1.7-1.9,2.6-2.9C196.9,58.7,204.9,57.2,214.3,60z"/>
<path class="st1" d="M628,194c6.6,5.4,12.1,13.4,13,22c0.8,9.9-0.1,17.1-6.3,24.9c-4.5,3.4-8.7,4.3-14.3,3.9
	c-5.8-0.8-9.3-3.8-13.4-7.9c-1.3,3-2.6,5.9-4,9c-0.7,0-1.3,0-2,0c-1,4.6-2,9.2-3,14c2.6-0.7,2.6-0.7,5.3-1.4c1-0.3,1.9-0.5,3-0.8
	c3.3-1,5.8-1.9,8.3-4.3c4.3-4.3,11.6-6.4,17.5-6.5c5.2,1.6,8.2,3.3,11,8c2.3,5.3,2.3,9.4,0.2,14.8c-1.7,3.2-4,5.8-6.5,8.4
	c-1.8,1.8-1.8,1.8-3.2,3.9c-2.2,2.9-5.3,4.2-8.5,5.9c-0.8,0.4-1.5,0.8-2.3,1.3c-8.1,4.3-16.4,7.4-25.7,6.7c0,0.7,0,1.3,0,2
	c-1.7,0-3.3,0-5,0c0-0.7,0-1.3,0-2c-0.9,0.1-1.9,0.2-2.9,0.3c-7.9,0-15.9-4.4-21.7-9.6c-1.6-1.7-2.5-3.3-3.5-5.4c-0.5-1-0.5-1-1-1.9
	c-6-14.4-3.7-30.2,2-44.3c2.1-4.8,4.5-9.4,7-14c0.7,0,1.3,0,2,0c0.4-1.1,0.4-1.1,0.8-2.2c1.4-3.1,3.1-5.2,5.3-7.8
	c0.4-0.8,0.8-1.6,1.3-2.4c3.7-5.5,8.6-9.4,14.8-11.6c0.3-1,0.7-2,1-3c1.7-0.9,1.7-0.9,3.8-1.6c0.7-0.2,1.4-0.5,2.1-0.7
	C611.9,188.9,619.8,189,628,194z M592,209c-0.8,0.7-1.7,1.5-2.5,2.3c-6,6.6-15.5,17.6-15.5,26.8c-0.7,0-1.3,0-2,0
	c-0.7,1.8-0.7,1.8-1.4,3.6c-0.3,0.7-0.5,1.3-0.8,2c-2.9,9.1-3.8,22.7-0.1,31.6c3.7,6.6,8.9,10.6,16,12.9c10.2,2.2,21.1,0.8,30.3-4.2
	c0-0.7,0-1.3,0-2c0.9-0.2,1.7-0.5,2.6-0.7c6.6-2.4,14.6-7.4,17.7-13.9c0.7-3.6,0.9-5.8-0.3-9.3c-2.5-2.3-4.3-2-7.6-2
	c-4.6,0.7-8,3-12,5.5c-8.2,5.1-16,4.8-25.4,4.5c-0.1-1.5-0.1-3-0.1-4.5c0-0.8,0-1.7-0.1-2.5c0.5-7,2.9-13,5.8-19.3
	c2.4-5.3,2.4-5.3,4.4-10.7c1-0.3,2-0.7,3-1c1-1.5,1-1.5,1.9-2.9c2-2.9,2.8-3.9,6.1-5.1c-0.1,1.5-0.1,1.5-0.2,3.1
	c0.2,4.2,0.9,6.4,3.2,9.9c2.3,2,3.9,3,7,3.1c4-0.4,7.2-0.9,10-4.1c3.1-6.9,2.3-13,0-20c-0.7,0-1.3,0-2,0c-0.1-0.6-0.2-1.2-0.3-1.8
	c-0.8-2.5-1.8-3.9-3.5-5.9c-0.5-0.6-1-1.2-1.5-1.8c-4-3.8-7.7-4-12.9-3.9C603.7,199.6,597.7,203.4,592,209z"/>
<path class="st6" d="M540,195c0,0.7,0,1.3,0,2c1.2,0,1.2,0,2.5,0.1c5.7,1.5,9.7,5.2,12.9,10.1c2.6,5.1,2.6,5.1,2.6,7.8
	c0.7,0,1.3,0,2,0c2.2,5.3,2.3,10,2.3,15.6c0,1.3,0,1.3,0,2.5c0,4.4-0.1,8-2.3,11.9c-1.6,1.4-3.3,2.7-5,4c-1.8,5.3-2.2,12-0.1,17.3
	c1,1.6,2,3.2,3.1,4.7c0,0.7,0,1.3,0,2c0.7,0,1.3,0,2,0c1.8,6.1,2.3,10,0,16c-0.7,0-1.3,0-2,0c-0.2,0.7-0.5,1.4-0.7,2.2
	c-1.6,3.4-3.5,5.4-6.3,7.8c-3,1-5.2,1.2-8.4,1.2c-1.4,0-1.4,0-2.8,0c-4.6-0.4-7.7-1.8-10.8-5.2c-2.4-2.7-2.4-2.7-5-5
	c-2.9,0-4.5,0.4-7.2,1.4c-10.1,3.4-18.4,2.8-28.2-1.7c-5.2-2.8-7.5-5.9-9.7-11.4c-1.1-4.1-1.3-7.7-1.3-11.9c0-0.8,0-1.6,0-2.4
	c0.1-7.2,1.7-13.4,4.4-20c0.3-0.8,0.6-1.6,0.9-2.4c0.7-1.6,1.4-3.1,2.1-4.6c0.7,0,1.3,0,2,0c0.3-0.9,0.5-1.7,0.8-2.6
	c3.2-8.7,9-16.6,15.2-23.4c0.6-0.7,1.1-1.4,1.7-2.1c3.8-4.6,7-7.3,12.3-9.9c1.1-0.6,1.1-0.6,2.3-1.3c1.8-0.8,1.8-0.8,4.8-0.8
	c0-0.7,0-1.3,0-2C529,193.3,535,193.3,540,195z M517,208c-0.3,1-0.7,2-1,3c-1.3,0.7-2.7,1.3-4,2c-3.9,3.8-7.6,8.1-10,13
	c0,0.7,0,1.3,0,2c-0.7,0-1.3,0-2,0c-6.7,8.7-11.8,20.1-13,31c-0.7,0-1.3,0-2,0c0,4.3,0,8.6,0,13c0.7,0,1.3,0,2,0
	c0.1,0.9,0.2,1.8,0.3,2.8c0.8,3.7,1.8,4.9,4.8,7.3c0.7,0,1.3,0,2,0c0,0.7,0,1.3,0,2c7.6,3.1,14.4,2.6,22,0c0-0.7,0-1.3,0-2
	c0.7-0.2,1.4-0.5,2.1-0.8c3.2-1.4,6-3.2,8.9-5.3c0.1,0.8,0.3,1.5,0.4,2.3c1.1,5.3,3,7.7,7.1,11.2c4.3,2.6,8.6,2.6,13.5,1.5
	c3.1-2.8,4.8-5.5,5.4-9.6c-0.5-4.1-1.9-6.1-4.1-9.5c-4-6.2-3.5-12.8-3.2-19.9c0-1.3,0.1-2.6,0.1-3.9c0.9-3.1,0.9-3.1,3.9-5.2
	c2-1.6,2.9-2.4,3.6-4.9c0.2-2.4,0.2-4.7,0.2-7.1c0-0.8,0-1.7-0.1-2.6c-0.4-8.5-2.7-15.3-8.7-21.4c-4.8-3.7-9.2-4.8-15.2-4.5
	C525.1,203.4,520.9,205.2,517,208z"/>
<path class="st7" d="M211,68c3.1,1.9,3.1,1.9,5,5c0.9,4.8,0.8,8.6-1.7,12.9c-2.3,2.1-2.3,2.1-4.7,3.3c-5.9,4-9.2,11.6-12.6,17.8
	c-0.7,0-1.3,0-2,0c-0.1,0.7-0.2,1.4-0.4,2.2c-1.1,4.6-3.4,8.6-5.6,12.8c-0.3,0.7-0.7,1.3-1,2c-2.1,4-4.6,6.9-8,10
	c-0.6,0.6-1.1,1.2-1.7,1.8C177,137,177,137,175,137c0,0.7,0,1.3,0,2c-3.7,1.9-7.9,1.7-12,1c-3.5-3.2-4.3-6.3-4.7-10.9
	c0.2-6.1,3.4-9.1,7.7-13.1c0.6-0.6,1.3-1.2,2-1.8c2.1-2.3,3.3-4.3,4.6-7.2c0.4-0.9,0.9-1.9,1.3-2.8c0.4-1,0.9-1.9,1.3-2.9
	c0.5-1,0.9-2,1.4-3c1.1-2.4,2.2-4.8,3.4-7.3c0.7,0,1.3,0,2,0c0.3-0.7,0.5-1.4,0.8-2.2C188,76.3,196.4,65.8,211,68z"/>
<path class="st8" d="M365,240c2.9,6.1,5.6,12.2,4,19c-2.2,2.8-3.9,4.4-7,6c-3,0.1-5.9,0.1-8.9,0.1c-1.2,0-1.2,0-2.5,0
	c-0.8,0-1.6,0-2.4,0c-0.7,0-1.4,0-2.2,0c-2.1-0.1-4-0.5-6.1-1.1c0-2,0-2,1.9-4c0.5-0.4,0.9-0.9,1.4-1.3c3-3,5.7-6.1,8.4-9.3
	c2.3-2.4,4.6-4.5,7.3-6.4c0.7,0,1.3,0,2,0c0-0.7,0-1.3,0-2C363,240,363,240,365,240z M360,253c-0.7,1.3-1.3,2.6-2,4c1,0,2,0,3,0
	C360.7,255.7,360.3,254.4,360,253z"/>
<path class="st9" d="M533,226c0.3,3,0.7,5.9,1,9c-0.7,0.3-1.4,0.6-2.2,1c-3.9,2.8-5.9,6.3-8.3,10.4c-8.1,13.3-8.1,13.3-15.5,15.6
	c0.5-8.3,4-15.3,10-21c0.9-1.7,1.9-3.4,2.8-5.1C526.9,226,526.9,226,533,226z"/>
<path class="st10" d="M197,71c-1.4,3-2.9,5.3-5.1,7.8c-0.8,0.9-0.8,0.9-1.6,1.9c-0.4,0.5-0.8,0.9-1.2,1.4c-0.7-0.3-1.3-0.7-2-1
	C193.4,71,193.4,71,197,71z"/>
<path class="st11" d="M456,207c1,0,2,0,3,0c0,2.6,0,5.3,0,8c-1,0-2,0-3,0C456,212.4,456,209.7,456,207z"/>
<path class="st12" d="M543,251c0.7,0,1.3,0,2,0c0,2,0,4,0,6c-0.7,0-1.3,0-2,0c-0.3,1.3-0.7,2.6-1,4C542.3,257.7,542.7,254.4,543,251
	z"/>
</svg>
